<svg width="55" height="55" viewBox="0 0 55 55" fill="none" xmlns="http://www.w3.org/2000/svg">
<path d="M51.4938 11.9167C50.4167 11.3667 49.2938 10.9084 48.125 10.5188V38.0875C45.5125 37.148 42.8313 36.6667 40.1042 36.6667C35.75 36.6667 31.4417 37.9042 27.5 40.2875V12.5584C23.7875 10.4271 19.5021 9.16671 14.8958 9.16671C10.7938 9.16671 6.92084 10.175 3.50625 11.9167C2.75 12.2834 2.29167 13.0855 2.29167 13.9334V41.6167C2.29167 42.9459 3.36876 43.8855 4.58334 43.8855C4.95 43.8855 5.31667 43.7938 5.68334 43.6105C8.45625 42.1667 11.5729 41.25 14.8958 41.25C19.6396 41.25 24.0167 43.1292 27.5 45.8334C30.9833 43.1292 35.3604 41.25 40.1042 41.25C43.4271 41.25 46.5438 42.1667 49.3167 43.6334C49.6833 43.8167 50.05 43.9084 50.4167 43.9084C51.6083 43.9084 52.7083 42.9688 52.7083 41.6396V13.9334C52.7083 13.0855 52.25 12.2834 51.4938 11.9167ZM22.9167 38.0875C20.3042 37.148 17.6229 36.6667 14.8958 36.6667C12.1688 36.6667 9.4875 37.148 6.875 38.0875V15.3771C9.41875 14.3 12.1 13.75 14.8958 13.75C17.6458 13.75 20.3729 14.323 22.9167 15.4V38.0875ZM43.5417 1.14587L32.0833 12.6042V34.375L43.5417 24.0625V1.14587Z" fill="#38289E"/>
</svg>
