<svg width="55" height="55" viewBox="0 0 55 55" fill="none" xmlns="http://www.w3.org/2000/svg">
<path d="M29.4937 34.5353L23.6729 28.7832L23.7416 28.7145C27.7291 24.2687 30.5708 19.1582 32.2437 13.7499H38.9583V9.16658H22.9166V4.58325H18.3333V9.16658H2.29163V13.727H27.8895C26.3541 18.1499 23.925 22.3437 20.625 26.0103C18.4937 23.6499 16.7291 21.0603 15.3312 18.3332H10.7479C12.4208 22.0687 14.7125 25.5978 17.577 28.7832L5.91246 40.2874L9.16663 43.5416L20.625 32.0832L27.752 39.2103L29.4937 34.5353ZM42.3958 22.9166H37.8125L27.5 50.4166H32.0833L34.65 43.5416H45.5354L48.125 50.4166H52.7083L42.3958 22.9166ZM36.3916 38.9582L40.1041 29.0353L43.8166 38.9582H36.3916V38.9582Z" fill="#38289E"/>
</svg>
