<svg width="132" height="46" viewBox="0 0 132 46" fill="none" xmlns="http://www.w3.org/2000/svg">
<path d="M11.35 0.399994C15.85 0.399994 19.3334 1.33333 21.8 3.19999C24.3 5.06666 25.55 7.84999 25.55 11.55C25.55 15.4167 24.3167 18.3333 21.85 20.3C19.3834 22.2333 16.0834 23.2 11.95 23.2H8.00002V35H0.650024V0.399994H11.35ZM11.35 17.8C13.4834 17.8 15.1167 17.3167 16.25 16.35C17.3834 15.3833 17.95 13.7833 17.95 11.55C17.95 7.64999 15.7167 5.69999 11.25 5.69999H8.00002V17.8H11.35Z" fill="#140A52"/>
<path d="M51.1227 21.15C51.1227 21.4833 51.0727 22.4 50.9727 23.9H34.4227C34.656 26.3 35.306 28 36.3727 29C37.4393 30 38.8893 30.5 40.7227 30.5C41.856 30.5 42.9227 30.3167 43.9227 29.95C44.9227 29.5833 46.006 29 47.1727 28.2L50.1227 32.2C47.156 34.6 43.806 35.8 40.0727 35.8C35.906 35.8 32.706 34.55 30.4727 32.05C28.2393 29.55 27.1227 26.1667 27.1227 21.9C27.1227 19.2 27.5893 16.7833 28.5227 14.65C29.4893 12.4833 30.8727 10.7833 32.6727 9.55C34.506 8.31666 36.6727 7.7 39.1727 7.7C42.9393 7.7 45.8727 8.88333 47.9727 11.25C50.0727 13.6167 51.1227 16.9167 51.1227 21.15ZM44.0727 19.15C44.0727 14.75 42.4893 12.55 39.3227 12.55C37.856 12.55 36.706 13.1 35.8727 14.2C35.0727 15.2667 34.5893 17.0167 34.4227 19.45H44.0727V19.15Z" fill="#140A52"/>
<path d="M78.6617 21.15C78.6617 21.4833 78.6117 22.4 78.5117 23.9H61.9617C62.1951 26.3 62.8451 28 63.9117 29C64.9784 30 66.4284 30.5 68.2617 30.5C69.3951 30.5 70.4617 30.3167 71.4617 29.95C72.4617 29.5833 73.5451 29 74.7117 28.2L77.6617 32.2C74.6951 34.6 71.3451 35.8 67.6117 35.8C63.4451 35.8 60.2451 34.55 58.0117 32.05C55.7784 29.55 54.6617 26.1667 54.6617 21.9C54.6617 19.2 55.1284 16.7833 56.0617 14.65C57.0284 12.4833 58.4117 10.7833 60.2117 9.55C62.0451 8.31666 64.2117 7.7 66.7117 7.7C70.4784 7.7 73.4117 8.88333 75.5117 11.25C77.6117 13.6167 78.6617 16.9167 78.6617 21.15ZM71.6117 19.15C71.6117 14.75 70.0284 12.55 66.8617 12.55C65.3951 12.55 64.2451 13.1 63.4117 14.2C62.6117 15.2667 62.1284 17.0167 61.9617 19.45H71.6117V19.15Z" fill="#140A52"/>
<path d="M98.1008 7.7C101.434 7.7 103.901 8.93333 105.501 11.4C107.134 13.8333 107.951 17.2667 107.951 21.7C107.951 24.4 107.534 26.8167 106.701 28.95C105.867 31.0833 104.651 32.7667 103.051 34C101.484 35.2 99.6175 35.8 97.4508 35.8C94.7508 35.8 92.5675 34.85 90.9008 32.95V45.2L83.8008 46V8.49999H90.0508L90.4008 11.6C91.4008 10.3 92.5675 9.33333 93.9008 8.69999C95.2675 8.03333 96.6675 7.7 98.1008 7.7ZM95.3508 30.5C98.8175 30.5 100.551 27.5833 100.551 21.75C100.551 18.55 100.167 16.2833 99.4008 14.95C98.6341 13.6167 97.4675 12.95 95.9008 12.95C94.9008 12.95 93.9675 13.2667 93.1008 13.9C92.2675 14.5 91.5341 15.3167 90.9008 16.35V27.9C92.0341 29.6333 93.5175 30.5 95.3508 30.5Z" fill="#140A52"/>
<path d="M131.095 8.49999V13.55L118.645 29.5H131.345L130.645 35H110.495V29.9L122.945 13.95H111.545V8.49999H131.095Z" fill="#140A52"/>
</svg>
